<?xml version="1.0" encoding="UTF-8" standalone="no"?>
<!DOCTYPE svg PUBLIC "-//W3C//DTD SVG 1.1//EN" "http://www.w3.org/Graphics/SVG/1.1/DTD/svg11.dtd">
<!-- Created with Vectornator (http://vectornator.io/) -->
<svg height="100%" stroke-miterlimit="10" style="fill-rule:nonzero;clip-rule:evenodd;stroke-linecap:round;stroke-linejoin:round;" version="1.1" viewBox="0 0 512 512" width="100%" xml:space="preserve" xmlns="http://www.w3.org/2000/svg" xmlns:xlink="http://www.w3.org/1999/xlink">
<defs/>
<g id="Untitled">
<path d="M128 0L384 0C454.692 0 512 57.3076 512 128L512 384C512 454.692 454.692 512 384 512L128 512C57.3076 512 8.65974e-15 454.692 0 384L0 128C0 57.3076 57.3076 1.2986e-14 128 0Z" fill="#ffffff" fill-rule="nonzero" opacity="1" stroke="none"/>
<g opacity="1">
<path d="M262.933 263.037L263.807 262.174C264.363 261.608 264.968 261.012 265.564 260.446L266.774 259.285L270.348 255.752L275.261 250.977L279.43 246.838L283.351 242.967L287.44 238.917L291.192 235.215L296.453 230.054C297.435 229.061 298.468 228.108 299.5 227.165C301.396 225.438 303.371 223.761 305.356 222.123C309.82 218.594 314.509 215.358 319.391 212.435C322.2 210.797 325.079 209.249 328.007 207.78C332.338 205.682 336.797 203.859 341.357 202.321C342.181 202.053 342.995 201.755 343.859 201.497C336.591 172.881 323.272 146.155 304.8 123.122C301.214 118.686 295.815 116.107 290.11 116.105L139.178 116.105C137.952 116.105 136.865 116.891 136.481 118.055C136.098 119.219 136.505 120.498 137.49 121.227C189.009 158.994 231.697 207.515 262.596 263.424L262.943 263.027L262.933 263.037Z" fill="#00d6b9" fill-rule="nonzero" opacity="1" stroke="none"/>
<path d="M202.941 395.885C280.889 395.885 348.802 352.866 384.197 289.301C385.448 287.058 386.649 284.824 387.81 282.541C385.448 287.123 382.667 291.476 379.502 295.544C377.687 297.874 375.763 300.117 373.735 302.264C370.947 305.203 367.923 307.908 364.693 310.354C363.368 311.382 362.004 312.359 360.603 313.282C358.812 314.488 356.975 315.624 355.095 316.686C349.6 319.76 343.754 322.159 337.685 323.833C334.646 324.688 331.556 325.351 328.434 325.818C326.191 326.165 323.868 326.414 321.585 326.592C319.173 326.761 316.721 326.811 314.26 326.811C311.527 326.766 308.798 326.594 306.081 326.294C304.047 326.07 302.022 325.782 300.006 325.431C298.23 325.119 296.466 324.745 294.716 324.309C293.763 324.091 292.86 323.833 291.917 323.575C289.328 322.875 286.743 322.157 284.165 321.421C282.874 321.034 281.584 320.696 280.333 320.309C278.413 319.746 276.5 319.157 274.596 318.542C273.048 318.066 271.499 317.55 269.951 317.034C268.482 316.557 266.973 316.081 265.514 315.565L262.496 314.532L258.844 313.242L256.263 312.299C254.543 311.693 252.832 311.061 251.131 310.403C250.139 310.006 249.146 309.669 248.154 309.282L244.203 307.733L240.024 306.046L237.305 304.934L233.95 303.544L231.369 302.482L228.689 301.311L226.366 300.279L224.262 299.336L222.108 298.343L219.915 297.311L217.116 296.021L214.187 294.631C213.155 294.125 212.113 293.648 211.081 293.132L208.46 291.842C162.133 268.722 120.296 237.53 84.9133 199.73C84.1138 198.889 82.8841 198.617 81.8045 199.042C80.7248 199.468 80.0111 200.505 80 201.666L80.0893 334.87L80.0893 345.68C80.0893 351.963 83.1862 357.819 88.3973 361.313C122.299 383.956 162.174 395.995 202.941 395.894L202.941 395.885Z" fill="#3370ff" fill-rule="nonzero" opacity="1" stroke="none"/>
<path d="M432 208.127C404.562 194.684 373.007 192.296 343.859 201.457C343.035 201.715 342.211 201.973 341.357 202.271C333.723 204.902 326.366 208.276 319.391 212.346C316.513 214.033 313.744 215.84 311.034 217.775C306.981 220.612 303.124 223.719 299.49 227.076C298.458 228.029 297.475 228.972 296.433 229.954L291.182 235.126L287.44 238.838L283.351 242.878L279.43 246.749L275.251 250.888L270.388 255.712L266.814 259.245L265.603 260.407C265.025 260.993 264.436 261.569 263.836 262.134L262.973 262.997L261.643 264.238L260.134 265.628C247.15 277.545 232.708 287.771 217.155 296.06L219.954 297.351L222.158 298.393L224.312 299.386L226.416 300.328L228.739 301.361L231.419 302.522L233.999 303.604L237.354 304.984L240.064 306.095L244.243 307.783C245.533 308.299 246.873 308.815 248.213 309.331C249.206 309.718 250.188 310.056 251.181 310.453C252.898 311.098 254.625 311.694 256.303 312.339L258.883 313.292C260.094 313.718 261.295 314.155 262.556 314.582L265.564 315.614C267.023 316.091 268.492 316.607 270 317.083C271.549 317.599 273.097 318.076 274.646 318.592C276.542 319.188 278.477 319.753 280.373 320.349C284.221 321.486 288.083 322.578 291.956 323.624C292.909 323.882 293.812 324.101 294.755 324.359C296.522 324.786 298.289 325.133 300.056 325.481C302.081 325.818 304.106 326.126 306.13 326.334C313.568 327.194 321.089 327.033 328.483 325.858C331.58 325.391 334.677 324.706 337.734 323.882C341.644 322.814 345.461 321.433 349.149 319.753C352.191 318.38 355.142 316.811 357.983 315.058C358.926 314.493 359.78 313.897 360.643 313.331C362.023 312.388 363.403 311.445 364.733 310.403C365.894 309.54 367.016 308.636 368.097 307.693C372.299 304.051 376.124 299.994 379.512 295.584C382.622 291.513 385.388 287.19 387.78 282.66L389.795 278.67L407.801 242.798L408.009 242.362C413.901 229.611 422.026 218.017 432 208.127Z" fill="#133c9a" fill-rule="nonzero" opacity="1" stroke="none"/>
</g>
</g>
</svg>
